<?xml version="1.0" encoding="utf-8"?>
<svg xmlns="http://www.w3.org/2000/svg" width="350px" height="100px" viewBox="0 0 350 100">
<path fill="#674399" d="M243.804,49.523v-0.961c0-0.672,0.322-1.008,0.965-1.008h3.904c0.643,0,0.963,0.336,0.963,1.008v0.385
	c0,1.217,0.23,2.049,0.689,2.496s1.301,0.672,2.525,0.672h2.158c1.195,0,2.029-0.24,2.504-0.721s0.711-1.375,0.711-2.688v-0.576
	c0-0.928-0.359-1.639-1.078-2.137c-0.721-0.494-1.615-0.791-2.688-0.887s-2.227-0.279-3.467-0.553
	c-1.24-0.271-2.396-0.623-3.467-1.057c-1.072-0.432-1.967-1.279-2.688-2.543c-0.719-1.264-1.078-2.887-1.078-4.871v-1.682
	c0-2.494,0.672-4.432,2.02-5.807s3.215-2.064,5.604-2.064h4.592c2.418,0,4.301,0.689,5.648,2.064s2.021,3.313,2.021,5.807v0.912
	c0,0.672-0.322,1.01-0.965,1.01h-3.904c-0.643,0-0.963-0.338-0.963-1.01v-0.287c0-1.248-0.23-2.096-0.689-2.545
	c-0.459-0.447-1.301-0.672-2.525-0.672h-1.791c-1.256,0-2.105,0.248-2.549,0.744c-0.445,0.498-0.666,1.465-0.666,2.904v0.912
	c0,1.504,1.256,2.369,3.766,2.592c2.602,0.225,4.914,0.768,6.934,1.633c1.072,0.479,1.967,1.336,2.688,2.566
	c0.719,1.232,1.078,2.809,1.078,4.729v1.633c0,2.496-0.674,4.432-2.02,5.807c-1.348,1.377-3.215,2.064-5.604,2.064h-5.006
	c-2.387,0-4.254-0.688-5.602-2.064C244.478,53.955,243.804,52.02,243.804,49.523z M273.7,57.395h-3.904
	c-0.643,0-0.965-0.336-0.965-1.008V24.66c0-0.674,0.322-1.01,0.965-1.01h3.904c0.643,0,0.965,0.336,0.965,1.01v10.848h0.184
	c0.672-1.729,2.172-2.592,4.5-2.592h1.469c4.807,0,7.211,2.607,7.211,7.822v15.648c0,0.672-0.338,1.008-1.012,1.008h-3.857
	c-0.643,0-0.963-0.336-0.963-1.008V41.027c0-1.023-0.207-1.752-0.621-2.184c-0.412-0.432-1.109-0.648-2.09-0.648h-1.652
	c-2.113,0-3.168,1.217-3.168,3.648v14.543C274.665,57.059,274.343,57.395,273.7,57.395z M304.056,57.395h-4.088
	c-2.42,0-4.287-0.672-5.604-2.016s-1.975-3.279-1.975-5.809v-8.832c0-2.527,0.658-4.463,1.975-5.807s3.184-2.016,5.604-2.016h4.088
	c2.387,0,4.246,0.68,5.578,2.039c1.332,1.361,1.998,3.289,1.998,5.783v8.832c0,2.496-0.666,4.426-1.998,5.785
	S306.442,57.395,304.056,57.395z M300.841,52.162h2.342c0.979,0,1.676-0.207,2.09-0.623c0.412-0.416,0.619-1.135,0.619-2.16v-8.447
	c0-1.023-0.207-1.744-0.619-2.16c-0.414-0.416-1.111-0.625-2.09-0.625h-2.342c-0.98,0-1.67,0.209-2.066,0.625
	c-0.398,0.416-0.598,1.137-0.598,2.16v8.447c0,1.025,0.199,1.744,0.598,2.16C299.171,51.955,299.86,52.162,300.841,52.162z
	 M321.091,63.924h-3.902c-0.643,0-0.965-0.32-0.965-0.961V33.924c0-0.672,0.322-1.008,0.965-1.008h3.902
	c0.643,0,0.965,0.336,0.965,1.008v1.584h0.184c0.336-0.865,0.934-1.512,1.791-1.945c0.857-0.432,1.76-0.646,2.709-0.646h1.883
	c2.357,0,4.141,0.672,5.352,2.016c1.209,1.344,1.813,3.279,1.813,5.807v8.832c0,2.529-0.604,4.465-1.813,5.809
	c-1.211,1.344-2.994,2.016-5.352,2.016h-1.883c-0.949,0-1.852-0.215-2.709-0.648c-0.857-0.432-1.455-1.078-1.791-1.943h-0.184v8.16
	C322.056,63.604,321.733,63.924,321.091,63.924z M325.224,52.115h2.021c0.979,0,1.676-0.217,2.09-0.648
	c0.412-0.432,0.619-1.16,0.619-2.184v-8.256c0-1.023-0.207-1.752-0.619-2.184c-0.414-0.432-1.111-0.648-2.09-0.648h-2.021
	c-2.111,0-3.168,1.217-3.168,3.648v6.623C322.056,50.898,323.112,52.115,325.224,52.115z"/>
<path fill="#32373C" d="M140.021,57.395h-5.327c-2.266,0-4.018-0.654-5.258-1.967c-1.24-1.313-1.86-3.137-1.86-5.473V33.971
	c0-2.367,0.62-4.199,1.86-5.496c1.24-1.295,2.992-1.943,5.258-1.943h5.327c2.265,0,4.025,0.648,5.281,1.943
	c1.255,1.297,1.883,3.129,1.883,5.496v15.984c0,2.336-0.628,4.16-1.883,5.473C144.046,56.74,142.286,57.395,140.021,57.395z
	 M135.336,53.314h3.995c2.234,0,3.353-1.184,3.353-3.551v-15.6c0-2.369-1.118-3.553-3.353-3.553h-3.995
	c-2.205,0-3.307,1.184-3.307,3.553v15.6C132.03,52.131,133.132,53.314,135.336,53.314z M156.598,57.395h-2.893
	c-0.521,0-0.781-0.271-0.781-0.816V33.73c0-0.543,0.26-0.814,0.781-0.814h2.893c0.521,0,0.781,0.271,0.781,0.814v1.729h0.184
	c0.735-1.695,2.28-2.543,4.638-2.543h2.021c2.234,0,3.949,0.641,5.143,1.92c1.194,1.279,1.791,3.119,1.791,5.52v16.223
	c0,0.545-0.275,0.816-0.827,0.816h-2.893c-0.521,0-0.781-0.271-0.781-0.816V40.547c0-2.367-1.118-3.551-3.352-3.551h-2.159
	c-2.511,0-3.766,1.359-3.766,4.078v15.504C157.379,57.123,157.119,57.395,156.598,57.395z M180.57,57.395h-2.894
	c-0.521,0-0.78-0.271-0.78-0.816V24.467c0-0.543,0.26-0.816,0.78-0.816h2.894c0.52,0,0.779,0.273,0.779,0.816v32.111
	C181.35,57.123,181.09,57.395,180.57,57.395z M187.595,28.836v-4.369c0-0.512,0.244-0.768,0.734-0.768h2.986
	c0.488,0,0.734,0.256,0.734,0.768v4.369c0,0.543-0.246,0.814-0.734,0.814h-2.986C187.839,29.65,187.595,29.379,187.595,28.836z
	 M187.595,56.578V33.73c0-0.543,0.244-0.814,0.734-0.814h2.939c0.52,0,0.781,0.271,0.781,0.814v22.848
	c0,0.32-0.055,0.537-0.16,0.648c-0.109,0.113-0.299,0.168-0.574,0.168h-2.939C187.854,57.395,187.595,57.123,187.595,56.578z
	 M201.739,57.395h-2.893c-0.521,0-0.781-0.271-0.781-0.816V33.73c0-0.543,0.26-0.814,0.781-0.814h2.893
	c0.52,0,0.781,0.271,0.781,0.814v1.729h0.184c0.734-1.695,2.279-2.543,4.639-2.543h2.02c2.234,0,3.949,0.641,5.145,1.92
	c1.193,1.279,1.791,3.119,1.791,5.52v16.223c0,0.545-0.277,0.816-0.828,0.816h-2.893c-0.521,0-0.781-0.271-0.781-0.816V40.547
	c0-2.367-1.117-3.551-3.352-3.551h-2.158c-2.512,0-3.766,1.359-3.766,4.078v15.504C202.521,57.123,202.259,57.395,201.739,57.395z
	 M238.386,57.395h-9.92c-2.266,0-4.018-0.654-5.258-1.967s-1.859-3.137-1.859-5.473v-9.6c0-2.367,0.619-4.201,1.859-5.496
	c1.24-1.297,2.992-1.943,5.258-1.943h3.766c2.266,0,4.025,0.646,5.281,1.943c1.256,1.295,1.883,3.129,1.883,5.496v6.096
	c0,0.576-0.275,0.863-0.826,0.863h-12.307c-0.338,0-0.506,0.16-0.506,0.48v2.064c0,2.336,1.117,3.504,3.354,3.504h9.275
	c0.551,0,0.826,0.287,0.826,0.863v2.4C239.212,57.139,238.937,57.395,238.386,57.395z M226.263,44.051h8.221
	c0.305,0,0.459-0.16,0.459-0.48v-3.072c0-1.215-0.262-2.102-0.781-2.662c-0.521-0.561-1.363-0.84-2.525-0.84h-2.525
	c-1.164,0-2.006,0.279-2.527,0.84c-0.52,0.561-0.779,1.447-0.779,2.662v3.072C225.804,43.891,225.956,44.051,226.263,44.051z
	 M131.32,76.381h-0.861c-0.126,0-0.207-0.072-0.241-0.217l-2.359-11.143c-0.035-0.143,0.022-0.215,0.172-0.215h0.568
	c0.126,0,0.201,0.072,0.224,0.215l2.049,10.332h0.086l2.618-10.35c0.023-0.131,0.097-0.197,0.224-0.197h0.655
	c0.138,0,0.218,0.066,0.241,0.197l2.635,10.35h0.086l2.032-10.332c0.022-0.143,0.103-0.215,0.241-0.215h0.585
	c0.138,0,0.189,0.072,0.155,0.215l-2.359,11.143c-0.023,0.145-0.098,0.217-0.224,0.217h-0.878c-0.126,0-0.207-0.072-0.241-0.217
	l-2.549-10.152h-0.069l-2.566,10.152C131.509,76.309,131.434,76.381,131.32,76.381z M146.853,76.381h-1.481
	c-0.747,0-1.334-0.229-1.765-0.684c-0.431-0.457-0.646-1.08-0.646-1.873v-4.068c0-0.791,0.215-1.416,0.646-1.871
	c0.431-0.457,1.019-0.684,1.765-0.684h1.481c0.746,0,1.337,0.227,1.774,0.684c0.436,0.455,0.654,1.08,0.654,1.871v4.068
	c0,0.793-0.218,1.416-0.654,1.873C148.19,76.152,147.599,76.381,146.853,76.381z M145.441,75.57h1.343
	c0.528,0,0.933-0.152,1.214-0.459c0.281-0.307,0.422-0.74,0.422-1.305v-4.033c0-0.563-0.141-0.998-0.422-1.305
	c-0.282-0.305-0.687-0.459-1.214-0.459h-1.343c-0.528,0-0.93,0.154-1.206,0.459c-0.275,0.307-0.413,0.742-0.413,1.305v4.033
	c0,0.564,0.138,0.998,0.413,1.305C144.511,75.418,144.913,75.57,145.441,75.57z M156.255,76.381h-1.481
	c-0.747,0-1.334-0.229-1.765-0.684c-0.431-0.457-0.646-1.08-0.646-1.873v-4.068c0-0.791,0.215-1.416,0.646-1.871
	c0.431-0.457,1.019-0.684,1.765-0.684h1.481c0.746,0,1.337,0.227,1.774,0.684c0.436,0.455,0.654,1.08,0.654,1.871v4.068
	c0,0.793-0.218,1.416-0.654,1.873C157.593,76.152,157.001,76.381,156.255,76.381z M154.843,75.57h1.343
	c0.528,0,0.933-0.152,1.214-0.459c0.281-0.307,0.422-0.74,0.422-1.305v-4.033c0-0.563-0.141-0.998-0.422-1.305
	c-0.282-0.305-0.687-0.459-1.214-0.459h-1.343c-0.528,0-0.93,0.154-1.206,0.459c-0.275,0.307-0.413,0.742-0.413,1.305v4.033
	c0,0.564,0.138,0.998,0.413,1.305C153.914,75.418,154.315,75.57,154.843,75.57z M166.519,76.381h-2.17
	c-0.747,0-1.335-0.229-1.765-0.684c-0.431-0.457-0.646-1.08-0.646-1.873v-6.461c0-0.793,0.215-1.416,0.646-1.873
	c0.43-0.455,1.019-0.684,1.765-0.684h2.17c0.746,0,1.334,0.229,1.765,0.684c0.43,0.457,0.646,1.08,0.646,1.873v0.881
	c0,0.145-0.063,0.217-0.189,0.217h-0.482c-0.126,0-0.189-0.072-0.189-0.217v-0.846c0-0.576-0.141-1.018-0.422-1.322
	c-0.282-0.307-0.686-0.459-1.214-0.459h-2.015c-0.528,0-0.93,0.156-1.206,0.467c-0.275,0.313-0.413,0.75-0.413,1.314v6.391
	c0,0.564,0.138,1.002,0.413,1.313c0.275,0.313,0.677,0.469,1.206,0.469h2.015c0.528,0,0.933-0.152,1.214-0.459
	c0.281-0.307,0.422-0.746,0.422-1.322v-0.848c0-0.143,0.063-0.215,0.189-0.215h0.482c0.126,0,0.189,0.072,0.189,0.215v0.883
	c0,0.793-0.215,1.416-0.646,1.873C167.854,76.152,167.265,76.381,166.519,76.381z M175.853,76.381h-1.481
	c-0.747,0-1.334-0.229-1.765-0.684c-0.431-0.457-0.646-1.08-0.646-1.873v-4.068c0-0.791,0.215-1.416,0.646-1.871
	c0.431-0.457,1.019-0.684,1.765-0.684h1.481c0.746,0,1.337,0.227,1.774,0.684c0.436,0.455,0.655,1.08,0.655,1.871v4.068
	c0,0.793-0.219,1.416-0.655,1.873C177.19,76.152,176.599,76.381,175.853,76.381z M174.44,75.57h1.343
	c0.528,0,0.933-0.152,1.214-0.459c0.281-0.307,0.422-0.74,0.422-1.305v-4.033c0-0.563-0.141-0.998-0.422-1.305
	c-0.282-0.305-0.687-0.459-1.214-0.459h-1.343c-0.528,0-0.93,0.154-1.206,0.459c-0.275,0.307-0.413,0.742-0.413,1.305v4.033
	c0,0.564,0.138,0.998,0.413,1.305C173.511,75.418,173.912,75.57,174.44,75.57z M182.207,76.381h-0.499
	c-0.115,0-0.172-0.072-0.172-0.217v-8.748c0-0.145,0.057-0.215,0.172-0.215h0.499c0.127,0,0.189,0.07,0.189,0.215v0.721h0.069
	c0.333-0.625,0.941-0.936,1.825-0.936h0.706c1.01,0,1.711,0.42,2.102,1.26c0.172-0.42,0.465-0.736,0.877-0.945
	c0.414-0.211,0.838-0.314,1.275-0.314h0.637c0.746,0,1.332,0.227,1.756,0.684c0.426,0.455,0.637,1.08,0.637,1.871v6.408
	c0,0.145-0.063,0.217-0.189,0.217h-0.498c-0.127,0-0.189-0.072-0.189-0.217v-6.371c0-0.576-0.139-1.018-0.414-1.324
	c-0.275-0.305-0.678-0.459-1.205-0.459h-0.637c-0.551,0-0.988,0.166-1.309,0.496c-0.322,0.33-0.482,0.777-0.482,1.34v6.318
	c0,0.145-0.064,0.217-0.189,0.217h-0.5c-0.126,0-0.188-0.072-0.188-0.217v-6.371c0-0.576-0.138-1.018-0.414-1.324
	c-0.275-0.305-0.677-0.459-1.205-0.459h-0.688c-0.552,0-0.985,0.154-1.301,0.459c-0.315,0.307-0.474,0.742-0.474,1.305v6.391
	C182.396,76.309,182.334,76.381,182.207,76.381z M196.31,76.381h-0.498c-0.115,0-0.172-0.072-0.172-0.217v-8.748
	c0-0.145,0.057-0.215,0.172-0.215h0.498c0.127,0,0.189,0.07,0.189,0.215v0.721h0.07c0.332-0.625,0.941-0.936,1.824-0.936h0.707
	c1.01,0,1.711,0.42,2.102,1.26c0.172-0.42,0.465-0.736,0.877-0.945c0.414-0.211,0.838-0.314,1.275-0.314h0.637
	c0.746,0,1.332,0.227,1.756,0.684c0.426,0.455,0.637,1.08,0.637,1.871v6.408c0,0.145-0.063,0.217-0.189,0.217h-0.498
	c-0.127,0-0.189-0.072-0.189-0.217v-6.371c0-0.576-0.139-1.018-0.414-1.324c-0.275-0.305-0.678-0.459-1.205-0.459h-0.637
	c-0.551,0-0.988,0.166-1.309,0.496c-0.322,0.33-0.482,0.777-0.482,1.34v6.318c0,0.145-0.064,0.217-0.189,0.217h-0.5
	c-0.127,0-0.189-0.072-0.189-0.217v-6.371c0-0.576-0.137-1.018-0.414-1.324c-0.275-0.305-0.676-0.459-1.205-0.459h-0.688
	c-0.553,0-0.986,0.154-1.301,0.459c-0.316,0.307-0.475,0.742-0.475,1.305v6.391C196.499,76.309,196.437,76.381,196.31,76.381z
	 M215.581,76.381h-3.6c-0.746,0-1.334-0.229-1.764-0.684c-0.432-0.457-0.646-1.08-0.646-1.873v-4.068
	c0-0.791,0.215-1.416,0.646-1.871c0.43-0.457,1.018-0.684,1.764-0.684h1.482c0.746,0,1.336,0.227,1.773,0.684
	c0.436,0.455,0.654,1.08,0.654,1.871v2.287c0,0.143-0.068,0.215-0.207,0.215h-5.098c-0.104,0-0.154,0.055-0.154,0.162v1.387
	c0,0.564,0.137,0.998,0.412,1.305s0.678,0.459,1.207,0.459h3.529c0.127,0,0.189,0.066,0.189,0.197v0.414
	C215.771,76.314,215.708,76.381,215.581,76.381z M210.587,71.539h4.289c0.102,0,0.154-0.055,0.154-0.162v-1.604
	c0-0.563-0.139-0.998-0.414-1.305c-0.275-0.305-0.678-0.459-1.205-0.459h-1.359c-0.529,0-0.932,0.154-1.207,0.459
	c-0.275,0.307-0.412,0.742-0.412,1.305v1.604C210.433,71.484,210.483,71.539,210.587,71.539z M219.749,76.381h-0.5
	c-0.115,0-0.172-0.072-0.172-0.217v-8.748c0-0.145,0.057-0.215,0.172-0.215h0.5c0.127,0,0.189,0.07,0.189,0.215v0.756h0.068
	c0.127-0.252,0.35-0.477,0.672-0.674c0.322-0.199,0.717-0.297,1.188-0.297h0.672c0.127,0,0.189,0.064,0.189,0.197v0.432
	c0,0.133-0.063,0.193-0.189,0.18h-0.809c-0.563,0-1.002,0.18-1.318,0.541c-0.314,0.359-0.473,0.846-0.473,1.457v6.156
	C219.938,76.309,219.876,76.381,219.749,76.381z M230.235,75.768v0.414c0,0.133-0.063,0.199-0.189,0.199h-2.479
	c-0.746,0-1.336-0.229-1.766-0.684c-0.43-0.457-0.646-1.08-0.646-1.873v-4.068c0-0.791,0.217-1.416,0.646-1.871
	c0.43-0.457,1.02-0.684,1.766-0.684h2.479c0.127,0,0.189,0.064,0.189,0.197v0.432c0,0.121-0.063,0.18-0.189,0.18h-2.41
	c-0.527,0-0.93,0.156-1.205,0.469s-0.414,0.75-0.414,1.314v3.996c0,0.564,0.139,1.002,0.414,1.313
	c0.275,0.313,0.678,0.469,1.205,0.469h2.41C230.173,75.57,230.235,75.637,230.235,75.768z M238.812,76.381h-3.6
	c-0.746,0-1.334-0.229-1.764-0.684c-0.432-0.457-0.646-1.08-0.646-1.873v-4.068c0-0.791,0.215-1.416,0.646-1.871
	c0.43-0.457,1.018-0.684,1.764-0.684h1.482c0.746,0,1.336,0.227,1.773,0.684c0.436,0.455,0.654,1.08,0.654,1.871v2.287
	c0,0.143-0.068,0.215-0.207,0.215h-5.098c-0.104,0-0.154,0.055-0.154,0.162v1.387c0,0.564,0.137,0.998,0.412,1.305
	s0.678,0.459,1.207,0.459h3.529c0.127,0,0.189,0.066,0.189,0.197v0.414C239.001,76.314,238.938,76.381,238.812,76.381z
	 M233.817,71.539h4.289c0.102,0,0.154-0.055,0.154-0.162v-1.604c0-0.563-0.139-0.998-0.414-1.305
	c-0.275-0.305-0.678-0.459-1.205-0.459h-1.359c-0.529,0-0.932,0.154-1.207,0.459c-0.275,0.307-0.412,0.742-0.412,1.305v1.604
	C233.663,71.484,233.714,71.539,233.817,71.539z"/>
<path fill="#674399" d="M92.058,9.939c-2.3-2.301-5.35-3.561-8.6-3.561h-4.34l11.51,24.25h22.11L92.058,9.939z M60.518,6.379h-11.93
	l-10.02,24.25h22.88L60.518,6.379z M75.798,6.379h-12.27l0.92,24.25h22.86L75.798,6.379z M39.968,6.379c-3.47,0-6.79,1.49-9.09,4.09
	l-17.9,20.16h22.34l10.02-24.25H39.968z M91.188,33.629v7.949c0,6.17,5.31,11.18,11.83,11.18c0.31,0,0.62-0.01,0.92-0.039
	c6.1-0.439,10.92-5.26,10.92-11.141v-7.949H91.188z M64.508,33.629v7.949c0,6.17,5.31,11.18,11.84,11.18
	c6.52,0,11.84-5.01,11.84-11.18v-7.949H64.508z M37.828,33.629v7.949c0,6.17,5.31,11.18,11.84,11.18c6.52,0,11.84-5.01,11.84-11.18
	v-7.949H37.828z M11.147,33.629v7.949c0,5.76,4.63,10.51,10.56,11.111c0.42,0.049,0.85,0.068,1.28,0.068
	c6.53,0,11.84-5.01,11.84-11.18v-7.949H11.147z M103.018,55.758c-5.85,0-10.91-3.25-13.33-7.959c-2.42,4.709-7.49,7.959-13.34,7.959
	s-10.92-3.25-13.34-7.959c-2.42,4.709-7.49,7.959-13.34,7.959s-10.92-3.25-13.34-7.959c-2.42,4.709-7.49,7.959-13.34,7.959
	c-0.43,0-0.86-0.02-1.28-0.049v6.359c0,13.141,10.65,23.791,23.79,23.791h4.63c2.71,0,5.35,0.818,7.59,2.359
	c7.29,5,21.25,11.721,38.86,6.529c0.34-0.1,0.29-0.609-0.06-0.65c-3.56-0.369-12.09-1.648-17.51-5.619
	c-1.13-0.83-0.57-2.619,0.84-2.619h0.29c13.14,0,23.8-10.65,23.8-23.791v-6.34C103.638,55.748,103.328,55.758,103.018,55.758z
	 M41.868,70.998c-3.23,0-5.85-2.619-5.85-5.85s2.62-5.85,5.85-5.85s5.85,2.619,5.85,5.85S45.098,70.998,41.868,70.998z
	 M62.817,70.998c-3.23,0-5.84-2.619-5.84-5.85s2.61-5.85,5.84-5.85c3.23,0,5.85,2.619,5.85,5.85S66.048,70.998,62.817,70.998z
	 M83.778,70.998c-3.23,0-5.85-2.619-5.85-5.85s2.62-5.85,5.85-5.85s5.84,2.619,5.84,5.85S87.008,70.998,83.778,70.998z"/>
<path fill="#FFFFFF" d="M117.857,31.498l-23.68-23.68c-2.86-2.859-6.67-4.439-10.72-4.439h-43.49c-4.33,0-8.46,1.859-11.34,5.1
	l-20.48,23.08v10.02c0,7.41,5.97,13.51,13.56,14.131c0.42,0.029,0.85,0.049,1.28,0.049c5.85,0,10.92-3.25,13.34-7.959
	c2.42,4.709,7.49,7.959,13.34,7.959s10.92-3.25,13.34-7.959c2.42,4.709,7.49,7.959,13.34,7.959s10.92-3.25,13.34-7.959
	c2.42,4.709,7.48,7.959,13.33,7.959c0.31,0,0.62-0.01,0.92-0.029c7.76-0.449,13.92-6.631,13.92-14.15V31.498z M60.518,6.379
	l0.93,24.25h-22.88l10.02-24.25H60.518z M30.877,10.469c2.3-2.6,5.62-4.09,9.09-4.09h5.37l-10.02,24.25h-22.34L30.877,10.469z
	 M11.147,41.578v-7.949h23.68v7.949c0,6.17-5.31,11.18-11.84,11.18c-0.43,0-0.86-0.02-1.28-0.068
	C15.778,52.088,11.147,47.338,11.147,41.578z M61.508,41.578c0,6.17-5.32,11.18-11.84,11.18c-6.53,0-11.84-5.01-11.84-11.18v-7.949
	h23.68V41.578z M63.528,6.379h12.27l11.51,24.25h-22.86L63.528,6.379z M88.188,41.578c0,6.17-5.32,11.18-11.84,11.18
	c-6.53,0-11.84-5.01-11.84-11.18v-7.949h23.68V41.578z M79.118,6.379h4.34c3.25,0,6.3,1.26,8.6,3.561l20.68,20.689h-22.11
	L79.118,6.379z M114.857,41.578c0,5.881-4.82,10.701-10.92,11.141c-0.3,0.029-0.61,0.039-0.92,0.039c-6.52,0-11.83-5.01-11.83-11.18
	v-7.949h23.67V41.578z"/>
</svg>
